<mxfile host="app.diagrams.net" agent="Mozilla/5.0 (Windows NT 10.0; Win64; x64) AppleWebKit/537.36 (KHTML, like Gecko) Chrome/136.0.0.0 Safari/537.36" version="27.1.3">
  <diagram name="Page-1" id="74e2e168-ea6b-b213-b513-2b3c1d86103e">
    <mxGraphModel dx="1802" dy="845" grid="1" gridSize="10" guides="1" tooltips="1" connect="1" arrows="1" fold="1" page="1" pageScale="1" pageWidth="1169" pageHeight="827" background="none" math="0" shadow="0">
      <root>
        <mxCell id="0" />
        <mxCell id="1" parent="0" />
        <mxCell id="AspSAdf8PWGHBNEj-gZZ-7" value="&lt;b&gt;&lt;font style=&quot;font-size: 18px;&quot;&gt;System Flowchart of Baguio LeFern Hotel&lt;/font&gt;&lt;/b&gt;" style="rounded=1;whiteSpace=wrap;html=1;" vertex="1" parent="1">
          <mxGeometry x="383" y="40" width="403" height="60" as="geometry" />
        </mxCell>
        <mxCell id="AspSAdf8PWGHBNEj-gZZ-8" value="&lt;b&gt;Customer&lt;/b&gt;" style="rounded=1;whiteSpace=wrap;html=1;" vertex="1" parent="1">
          <mxGeometry x="130" y="120" width="120" height="40" as="geometry" />
        </mxCell>
        <mxCell id="AspSAdf8PWGHBNEj-gZZ-9" value="&lt;b&gt;Receptionist&lt;/b&gt;" style="rounded=1;whiteSpace=wrap;html=1;" vertex="1" parent="1">
          <mxGeometry x="525" y="120" width="120" height="40" as="geometry" />
        </mxCell>
        <mxCell id="AspSAdf8PWGHBNEj-gZZ-10" value="&lt;b&gt;Time (Minutes)&lt;/b&gt;" style="rounded=1;whiteSpace=wrap;html=1;" vertex="1" parent="1">
          <mxGeometry x="950" y="120" width="120" height="40" as="geometry" />
        </mxCell>
      </root>
    </mxGraphModel>
  </diagram>
</mxfile>
